<svg width="73" height="47" viewBox="0 0 73 47" fill="none" xmlns="http://www.w3.org/2000/svg">
<path d="M0.956055 46.5866H72.9561V39.9648H0.956055V46.5866Z" fill="#F3B500"/>
<path d="M0.956055 7.21021H72.9561V0.587891H0.956055V7.21021Z" fill="#333333"/>
<path d="M36.3342 14.5066L32.5389 32.7093H27.9492L31.7446 14.5066H36.3342ZM55.6458 26.2603L58.0625 19.4243L59.4521 26.2603H55.6458ZM60.7691 32.7093H65.0139L61.3059 14.5066H57.3903C56.5077 14.5066 55.7646 15.0318 55.4344 15.8418L48.5475 32.7093H53.3684L54.3247 29.9905H60.2134L60.7691 32.7093ZM48.7859 26.7662C48.8067 21.9629 42.3137 21.6961 42.3565 19.5504C42.3701 18.8978 42.9765 18.203 44.3027 18.0259C44.96 17.9387 46.774 17.8684 48.8303 18.8399L49.6346 14.9789C48.5295 14.5689 47.109 14.1738 45.3409 14.1738C40.8032 14.1738 37.6109 16.6471 37.585 20.1908C37.5556 22.8115 39.8652 24.2723 41.6015 25.1447C43.3923 26.0376 43.992 26.6097 43.9829 27.4064C43.9699 28.6278 42.5546 29.1686 41.2374 29.1888C38.9285 29.2257 37.5911 28.549 36.5236 28.0382L35.6909 32.0291C36.7643 32.5337 38.7442 32.972 40.7932 32.9951C45.618 32.9951 48.7725 30.5508 48.7859 26.7662ZM29.7755 14.5066L22.3379 32.7093H17.4865L13.8255 18.1819C13.6043 17.2888 13.4105 16.9604 12.7357 16.5834C11.6316 15.968 9.81009 15.3928 8.20801 15.035L8.31627 14.5066H16.1271C17.1212 14.5066 18.0171 15.1862 18.2451 16.3613L20.1789 26.8954L24.9529 14.5066" fill="#333333"/>
</svg>
