<svg width="113" height="39" viewBox="0 0 113 39" fill="none" xmlns="http://www.w3.org/2000/svg">
<path d="M48.1813 22.4434H0.869141V38.2048H48.1813V22.4434Z" fill="#84B740"/>
<path d="M48.1813 0.9375H0.869141V16.7129H48.1813V0.9375Z" fill="#259BD6"/>
<path d="M95.4941 35.0003L95.2833 35.0426C94.5528 35.183 94.2859 35.2392 93.752 35.2392C92.5157 35.2392 91.0548 34.6071 91.0548 31.629C91.0548 30.0977 91.3075 28.0609 93.6113 28.0609H93.6255C94.0187 28.089 94.4683 28.1312 95.3111 28.384L95.4938 28.4401L95.4941 35.0003ZM95.8734 20.1521L95.4941 20.2224V25.729L95.157 25.6306L95.0586 25.6025C94.6793 25.4901 93.8084 25.2374 92.9656 25.2374C88.358 25.2374 87.3887 28.7213 87.3887 31.6429C87.3887 35.6466 89.6363 37.9503 93.5557 37.9503C95.2132 37.9503 96.4353 37.7818 97.6716 37.3745C98.8095 37.0093 99.2168 36.4894 99.2168 35.3796V19.5762C98.121 19.7728 96.9831 19.9694 95.8734 20.1521Z" fill="#333333"/>
<path d="M109.189 35.1036L108.992 35.1598L108.29 35.3425C107.629 35.511 107.039 35.6094 106.59 35.6094C105.508 35.6094 104.862 35.0755 104.862 34.1626C104.862 33.5726 105.129 32.5751 106.899 32.5751H109.188V35.1036H109.189ZM107.573 25.1719C106.154 25.1719 104.693 25.4246 102.881 25.9866L101.701 26.3378L102.095 29.0067L103.247 28.6274C104.455 28.234 105.958 27.9812 107.082 27.9812C107.587 27.9812 109.133 27.9812 109.133 29.6529V30.3834H106.983C103.064 30.3834 101.252 31.6336 101.252 34.3167C101.252 36.6063 102.924 37.983 105.733 37.983C106.604 37.983 107.812 37.8145 108.852 37.5615L108.908 37.5473L108.964 37.5615L109.315 37.6177C110.411 37.8143 111.549 38.0111 112.658 38.2216V29.4558C112.658 26.6187 110.945 25.1719 107.573 25.1719Z" fill="#333333"/>
<path d="M81.8966 35.1036L81.7 35.1598L80.9976 35.3425C80.3375 35.511 79.7613 35.6094 79.2978 35.6094C78.2161 35.6094 77.5699 35.0755 77.5699 34.1626C77.5699 33.5726 77.8368 32.5751 79.5928 32.5751H81.8824V35.1036H81.8966ZM80.2952 25.1719C78.8623 25.1719 77.4155 25.4246 75.6034 25.9866L74.4233 26.3378L74.8165 29.0067L75.9685 28.6274C77.1767 28.234 78.6796 27.9812 79.8036 27.9812C80.3094 27.9812 81.8546 27.9812 81.8546 29.6529V30.3834H79.7054C75.786 30.3834 73.96 31.6336 73.96 34.3167C73.96 36.6063 75.6317 37.983 78.4552 37.983C79.3261 37.983 80.5343 37.8145 81.5737 37.5615L81.6299 37.5473L81.6861 37.5615L82.0231 37.6177C83.1329 37.8143 84.2566 38.0111 85.3663 38.2358V29.47C85.3805 26.6048 83.6668 25.1719 80.2952 25.1719Z" fill="#333333"/>
<path d="M67.1052 25.1978C65.3212 25.1978 63.8463 25.7878 63.2985 26.0406L63.1581 26.1109L63.0315 26.0125C62.273 25.4647 61.1632 25.1836 59.618 25.1836C58.2554 25.1836 56.9772 25.3802 55.5863 25.7876C54.3923 26.1527 53.9287 26.7288 53.9287 27.8105V37.8265H57.6654V28.5691L57.8481 28.5129C58.6066 28.2601 59.0563 28.2179 59.4917 28.2179C60.5734 28.2179 61.1212 28.7938 61.1212 29.9177V37.8404H64.8017V29.7631C64.8017 29.2854 64.7033 29.0045 64.6894 28.9484L64.5628 28.7095L64.8156 28.5972C65.3776 28.3444 65.9957 28.2179 66.6417 28.2179C67.3861 28.2179 68.2712 28.5129 68.2712 29.9177V37.8404H71.9375V29.5526C71.9375 26.6165 70.3642 25.1978 67.1052 25.1978Z" fill="#333333"/>
<path d="M106.439 11.2202C105.891 11.2202 104.978 11.164 104.262 11.0236L104.051 10.9813V5.57292C104.051 5.1233 103.967 4.84244 103.952 4.80019L103.84 4.5755L104.079 4.47707C104.135 4.44899 104.191 4.43482 104.262 4.40673L104.304 4.37865C104.388 4.35056 104.472 4.32248 104.557 4.29439C104.599 4.28022 104.627 4.26631 104.655 4.26631C105.484 4.04162 106.243 4.0697 106.58 4.04162H106.594C108.883 4.04162 109.15 6.07847 109.15 7.60978C109.136 10.5881 107.661 11.2202 106.439 11.2202ZM106.425 0.9375C106.397 0.9375 106.355 0.9375 106.327 0.9375C104.177 0.9375 101.972 1.52755 101.185 2.67932C100.764 3.24129 100.525 3.94369 100.511 4.77235V10.3493C100.511 10.827 100.412 11.0094 100.398 11.0517L100.272 11.2905H93.4871V7.41342H93.4729C93.3886 3.32555 90.9725 1.07793 87.4747 1.07793H87.0673H84.0611C83.9207 2.07535 83.8083 2.77775 83.6679 3.77518H87.0673C88.8514 3.77518 89.7926 5.29231 89.7926 7.62419V11.5294L89.5538 11.4029C89.5115 11.3887 89.2167 11.2905 88.753 11.2905H82.881C82.7687 12.0349 82.6282 13.0043 82.4736 13.9736H100.525C101.143 13.8471 101.859 13.7347 102.477 13.6366C103.39 14.0862 105.09 14.3248 106.256 14.3248C110.175 14.3248 112.718 11.6979 112.718 7.65228C112.704 3.64867 110.246 1.02176 106.425 0.9375Z" fill="#333333"/>
<path d="M74.7757 15.6189H74.9442C78.8636 15.6189 80.6896 14.3265 80.6896 11.1378C80.6896 8.84796 79.0179 7.02188 76.2086 7.02188H72.5984C71.5167 7.02188 70.8705 6.40374 70.8705 5.36431C70.8705 4.66191 71.1374 3.791 72.9074 3.791H80.802C80.9705 2.76549 81.0548 2.11926 81.2094 1.09375H73.0055C69.1846 1.09375 67.2601 2.69515 67.2601 5.36431C67.2601 8.00513 68.9318 9.38184 71.7412 9.38184H75.3513C76.433 9.38184 77.0792 10.2388 77.0792 11.1378C77.0792 11.7279 76.8123 12.95 75.0563 12.95H74.4523L62.8911 12.9219H60.7839C58.9998 12.9219 57.7496 11.9106 57.7496 9.56452V7.94896C57.7496 5.50474 58.719 3.9876 60.7839 3.9876H64.2114C64.366 2.94817 64.4642 2.28778 64.6049 1.30452H60.3343H59.9269C56.4291 1.30452 54.013 3.65057 53.9287 7.73819V7.89279V9.56452C54.013 13.6524 56.4291 15.605 59.9269 15.605H60.3343H63.3405L69.6056 15.6192H73.3423L74.7757 15.6189Z" fill="#333333"/>
</svg>
