<svg width="114" height="42" viewBox="0 0 114 42" fill="none" xmlns="http://www.w3.org/2000/svg">
<path d="M21.5164 5.42859C20.192 6.80837 18.073 7.89665 15.954 7.74118C15.6891 5.87556 16.7266 3.89334 17.9406 2.66903C19.2649 1.25039 21.5826 0.239843 23.4588 0.162109C23.6795 2.10546 22.8187 4.00994 21.5164 5.42859ZM23.4367 8.11041C20.3686 7.95495 17.7419 9.64566 16.2851 9.64566C14.8062 9.64566 12.5769 8.18815 10.1489 8.22702C6.99244 8.26588 4.05676 9.84 2.44544 12.3469C-0.865488 17.3608 1.5846 24.7844 4.78516 28.8654C6.35233 30.8865 8.22852 33.1019 10.7007 33.0242C13.0404 32.9464 13.9675 31.6833 16.7928 31.6833C19.6402 31.6833 20.4569 33.0242 22.929 32.9853C25.4895 32.9464 27.1008 30.9642 28.668 28.9431C30.4559 26.65 31.1843 24.4151 31.2284 24.2985C31.1843 24.2597 26.2841 22.6078 26.24 17.6328C26.1958 13.4741 30.1027 11.4918 30.2793 11.3752C28.072 8.49908 24.6286 8.18815 23.4367 8.11041ZM41.1612 2.4747V32.7715H46.5028V22.4135H53.8972C60.6515 22.4135 65.3972 18.3324 65.3972 12.4247C65.3972 6.51687 60.7398 2.4747 54.0738 2.4747H41.1612ZM46.5028 6.43913H52.6612C57.2964 6.43913 59.9452 8.61569 59.9452 12.4441C59.9452 16.2725 57.2964 18.4685 52.6391 18.4685H46.5028V6.43913ZM75.1534 33.0047C78.5084 33.0047 81.6207 31.5084 83.0334 29.1375H83.1437V32.7715H88.0881V17.6911C88.0881 13.3186 84.115 10.5007 78.0008 10.5007C72.3281 10.5007 68.1342 13.3575 67.9797 17.283H72.7916C73.1889 15.4174 75.1534 14.1931 77.8463 14.1931C81.113 14.1931 82.9451 15.534 82.9451 18.0021V19.6734L76.2791 20.0232C70.0766 20.3535 66.7215 22.5884 66.7215 26.4751C66.7215 30.4006 70.187 33.0047 75.1534 33.0047ZM76.5881 29.4095C73.7407 29.4095 71.9307 28.2047 71.9307 26.3585C71.9307 24.454 73.6745 23.3463 77.0075 23.1714L82.9451 22.841V24.5512C82.9451 27.3885 80.2081 29.4095 76.5881 29.4095ZM94.6878 41.0113C99.897 41.0113 102.347 39.2623 104.488 33.957L113.869 10.7922H108.439L102.148 28.6905H102.038L95.7473 10.7922H90.1629L99.2128 32.8493L98.7272 34.1902C97.9105 36.4639 96.5861 37.3384 94.2243 37.3384C93.8049 37.3384 92.9882 37.2995 92.6571 37.2607V40.8947C92.9662 40.9725 94.2905 41.0113 94.6878 41.0113Z" fill="#333333"/>
</svg>
