<svg width="114" height="41" viewBox="0 0 114 41" fill="none" xmlns="http://www.w3.org/2000/svg">
<path d="M74.1592 30.1287V8.99889H77.1416V10.6931C78.0493 9.32994 79.3948 8.58984 81.0641 8.58984C84.5005 8.58984 86.9643 11.881 86.9643 16.5937C86.9643 21.3064 84.4844 24.6562 81.0641 24.6562C79.3784 24.6562 78.0493 23.8771 77.1416 22.5139V30.1284H74.1592V30.1287ZM77.1418 14.6467V18.5416C77.774 20.1192 78.9086 21.268 80.5458 21.268C82.5234 21.268 83.8525 19.4958 83.8525 16.5747C83.8525 13.6926 82.5234 11.9397 80.5458 11.9397C78.9086 11.959 77.774 13.0302 77.1418 14.6467Z" fill="#02AA7C"/>
<path d="M88.8994 19.8648C88.8994 17.2941 90.2286 15.5025 92.4329 15.1714L97.5064 14.3923V13.6329C97.5064 12.7177 97.1174 12.2307 96.4043 12.2307H90.0341V8.97852H96.5178C99.095 8.97852 100.505 10.4974 100.505 13.1851V24.1881H97.4903V22.3382C96.6151 23.8184 95.1725 24.6555 93.3084 24.6555C90.6825 24.6555 88.8994 22.7276 88.8994 19.8648ZM94.0376 21.7341C95.5613 21.7341 96.9715 20.7019 97.4901 19.183V17.2744L93.6161 17.9172C92.5464 18.0925 91.9465 18.774 91.9465 19.8841C91.9467 21.072 92.7085 21.7341 94.0376 21.7341Z" fill="#02AA7C"/>
<path d="M102.675 26.8758H104.847C105.673 26.8758 106.046 26.4668 106.322 25.532L106.711 24.1881L102.107 8.97852H105.22L108.089 19.5727H108.154L110.893 8.97852H113.956L108.915 26.4471C108.235 28.8425 107.327 30.1277 105.106 30.1277H102.675L102.675 26.8758Z" fill="#02AA7C"/>
<path d="M11.659 40.5859C15.1278 40.5859 17.9806 39.2811 19.8609 37.1001C21.2711 35.4252 22.0977 33.1662 22.0977 30.5568C22.0977 28.2004 21.3682 26.0778 20.0229 24.4612C18.6777 22.8446 16.7486 21.6568 14.3173 21.092L10.3298 20.1572C8.67658 19.7872 7.73646 18.794 7.73646 17.4115C7.73646 15.6002 9.19521 14.354 11.5294 14.354C12.9882 14.354 14.2363 14.9188 15.0629 15.9119C15.5815 16.5937 15.9381 17.4698 16.0516 18.463L21.8058 16.9051C21.6437 14.9188 20.8657 13.1659 19.6825 11.725C17.7861 9.48531 14.8845 8.06375 11.4645 8.06375C8.30366 8.06375 5.66171 9.31026 3.83003 11.2966C2.2739 13.0492 1.39871 15.4055 1.39871 18.0346C1.39871 20.3326 2.01472 22.2799 3.26284 23.7601C4.51097 25.2596 6.32628 26.3698 8.70904 27.0706L12.6479 28.2001C14.6256 28.7649 15.5008 29.6413 15.5008 31.1992C15.5008 33.1272 14.042 34.2567 11.6593 34.2567C9.94107 34.2567 8.54699 33.5749 7.67179 32.4454C7.05578 31.7053 6.68311 30.6928 6.63429 29.5827L0.717773 31.1409C0.879828 33.2635 1.70646 35.1331 2.95458 36.6327C4.91585 39.1057 8.09304 40.5859 11.659 40.5859ZM55.4561 40.5859C59.2976 40.5859 62.2478 38.911 64.2738 36.5353C65.8785 34.6657 66.8671 32.4847 67.386 30.2451L61.3238 27.8107C61.0644 28.9402 60.5457 30.1281 59.7191 31.0435C58.7304 32.173 57.3849 32.9715 55.4561 32.9715C53.6894 32.9715 52.0361 32.1537 50.8365 30.7318C49.637 29.2323 48.9077 27.0513 48.9077 24.3052C48.9077 21.5008 49.6372 19.3781 50.8365 17.8786C52.0197 16.4374 53.6408 15.6976 55.4075 15.6976C57.2717 15.6976 58.5684 16.4377 59.5085 17.5672C60.2866 18.502 60.7566 19.6898 61.0646 20.8777L67.2403 18.385C66.7703 16.204 65.7816 14.0227 64.3389 12.2117C62.2642 9.77736 59.2493 8.0441 55.2618 8.0441C51.5824 8.0441 48.2595 9.71901 45.8768 12.6011C43.494 15.5222 42.0352 19.5925 42.0352 24.3249C42.0352 29.0572 43.5428 33.1078 45.9741 36.0486C48.3403 38.911 51.7117 40.5859 55.4561 40.5859ZM34.4977 40.5859C37.1884 40.5859 39.1172 39.5928 39.9439 38.7163V31.9783C39.3118 32.5431 38.0797 33.2248 36.4589 33.2248C35.3082 33.2248 34.4813 32.9131 33.8656 32.2317C33.3469 31.6086 33.0875 30.5374 33.0875 29.1159V0.585938H26.2311V8.99886H39.9278V16.9834H26.2311V31.1412C26.2311 34.0039 26.9606 36.3213 28.2573 37.9378C29.716 39.6511 31.8555 40.5859 34.4977 40.5859Z" fill="#502C84"/>
</svg>
