<svg width="57" height="54" viewBox="0 0 57 54" fill="none" xmlns="http://www.w3.org/2000/svg">
<rect opacity="0.05" y="0.101562" width="57" height="53" rx="5" fill="#136387"/>
<path d="M36.1248 21.6953H23.1605C22.2422 21.6953 21.459 22.4516 21.459 23.3969V32.1478C21.459 33.0661 22.2152 33.8493 23.1605 33.8493H36.1248C37.0431 33.8493 37.8264 33.0931 37.8264 32.1478V23.3699C37.8264 22.4516 37.0431 21.6953 36.1248 21.6953ZM36.1248 22.9107C36.1518 22.9107 36.1788 22.9107 36.2059 22.9107L29.6427 27.1241L23.0795 22.9107C23.1065 22.9107 23.1335 22.9107 23.1605 22.9107H36.1248ZM36.1248 32.5799H23.1605C22.8905 32.5799 22.6744 32.3638 22.6744 32.0938V24.0991L28.9945 28.1504C29.1835 28.2855 29.3996 28.3395 29.6157 28.3395C29.8318 28.3395 30.0478 28.2855 30.2369 28.1504L36.557 24.0991V32.1208C36.611 32.3908 36.3949 32.5799 36.1248 32.5799Z" fill="#136387"/>
</svg>
