<svg width="55" height="56" viewBox="0 0 55 56" fill="none" xmlns="http://www.w3.org/2000/svg">
<g clip-path="url(#clip0_41_6190)">
<rect opacity="0.05" x="-15" y="0.849609" width="70" height="70" rx="5" fill="#136387"/>
<g clip-path="url(#clip1_41_6190)">
<path d="M36.4857 23.8609L29.6279 19.0516C28.9451 18.5766 28.0545 18.5766 27.3717 19.0516L20.5139 23.8609C19.9795 24.2172 19.6826 24.8406 19.6826 25.4641V34.5781C19.6826 35.6469 20.5732 36.5375 21.642 36.5375H35.3873C36.4561 36.5375 37.3467 35.6469 37.3467 34.5781V25.4641C37.3467 24.8109 37.0201 24.2172 36.4857 23.8609ZM31.2014 35.1719H25.7982V31.7578C25.7982 31.55 25.8873 31.3719 26.0654 31.2531L28.1436 29.7984C28.3514 29.65 28.6482 29.65 28.8561 29.7984L30.9342 31.2531C31.1123 31.3719 31.2014 31.55 31.2014 31.7578V35.1719V35.1719ZM36.0107 34.5484C36.0107 34.9047 35.7436 35.1719 35.3873 35.1719H32.5373V31.7578C32.5373 31.1344 32.2404 30.5109 31.7061 30.1547L29.6279 28.7C28.9451 28.225 28.0545 28.225 27.3717 28.7L25.2936 30.1547C24.7592 30.5109 24.4623 31.1344 24.4623 31.7578V35.1719H21.6123C21.2561 35.1719 20.9889 34.9047 20.9889 34.5484V25.4641C20.9889 25.2562 21.0779 25.0781 21.2561 24.9594L28.1436 20.1203C28.2623 20.0312 28.3811 20.0016 28.4998 20.0016C28.6186 20.0016 28.7373 20.0312 28.8561 20.1203L35.7436 24.9297C35.9217 25.0484 36.0107 25.2266 36.0107 25.4344V34.5484V34.5484Z" fill="#136387"/>
</g>
</g>
<defs>
<clipPath id="clip0_41_6190">
<rect width="55" height="55" fill="white" transform="translate(0 0.849609)"/>
</clipPath>
<clipPath id="clip1_41_6190">
<rect width="19" height="19" fill="white" transform="translate(19 18.1016)"/>
</clipPath>
</defs>
</svg>
