<svg width="24" height="26" viewBox="0 0 24 26" fill="none" xmlns="http://www.w3.org/2000/svg">
<rect y="0.101562" width="24" height="24" rx="5" fill="white"/>
<path fill-rule="evenodd" clip-rule="evenodd" d="M6 12.1016C6 9.7048 6 8.50642 6.57113 7.64326C6.82616 7.25782 7.15626 6.92773 7.5417 6.67269C8.40486 6.10156 9.60324 6.10156 12 6.10156C14.3968 6.10156 15.5951 6.10156 16.4583 6.67269C16.8437 6.92773 17.1738 7.25782 17.4289 7.64326C18 8.50642 18 9.7048 18 12.1016C18 14.4983 18 15.6967 17.4289 16.5599C17.1738 16.9453 16.8437 17.2754 16.4583 17.5304C15.5951 18.1016 14.3968 18.1016 12 18.1016C9.60324 18.1016 8.40486 18.1016 7.5417 17.5304C7.15626 17.2754 6.82616 16.9453 6.57113 16.5599C6 15.6967 6 14.4983 6 12.1016ZM15.1071 12.1024C15.1071 13.8179 13.7164 15.2086 12.0008 15.2086C10.2853 15.2086 8.89453 13.8179 8.89453 12.1024C8.89453 10.3868 10.2853 8.99609 12.0008 8.99609C13.7164 8.99609 15.1071 10.3868 15.1071 12.1024ZM12.0008 14.1577C13.1359 14.1577 14.0561 13.2375 14.0561 12.1024C14.0561 10.9672 13.1359 10.047 12.0008 10.047C10.8657 10.047 9.94547 10.9672 9.94547 12.1024C9.94547 13.2375 10.8657 14.1577 12.0008 14.1577ZM15.2297 9.56914C15.6328 9.56914 15.9596 9.24236 15.9596 8.83926C15.9596 8.43615 15.6328 8.10938 15.2297 8.10938C14.8266 8.10938 14.4999 8.43615 14.4999 8.83926C14.4999 9.24236 14.8266 9.56914 15.2297 9.56914Z" fill="#8D8BA7"/>
</svg>
