<svg width="55" height="56" viewBox="0 0 55 56" fill="none" xmlns="http://www.w3.org/2000/svg">
<g clip-path="url(#clip0_41_6198)">
<rect opacity="0.05" x="-15" y="0.349609" width="70" height="70" rx="5" fill="#136387"/>
<g clip-path="url(#clip1_41_6198)">
<path d="M31.6692 35.6236C30.9098 35.6236 30.0379 35.4267 29.0817 35.0611C27.1692 34.3017 25.0598 32.8392 23.1754 30.9548C21.291 29.0704 19.8285 26.9611 19.0692 25.0204C18.2254 22.9392 18.3098 21.2236 19.2942 20.2673C19.3223 20.2392 19.3785 20.2111 19.4067 20.1829L21.7692 18.7767C22.3598 18.4392 23.1192 18.6079 23.5129 19.1704L25.1723 21.6454C25.566 22.2361 25.3973 23.0236 24.8348 23.4173L23.8223 24.1204C24.5535 25.3017 26.6348 28.1986 29.9535 30.2798L30.5723 29.3798C31.0504 28.7048 31.8098 28.5079 32.4285 28.9298L34.9035 30.5892C35.466 30.9829 35.6348 31.7423 35.2973 32.3329L33.891 34.6954C33.8629 34.7517 33.8348 34.7798 33.8067 34.8079C33.3004 35.3423 32.5692 35.6236 31.6692 35.6236ZM20.1379 21.2236C19.6035 21.8142 19.6317 23.0236 20.2504 24.5704C20.9535 26.3423 22.3035 28.2829 24.0754 30.0548C25.8192 31.7986 27.7879 33.1486 29.5317 33.8517C31.0504 34.4704 32.2598 34.4986 32.8785 33.9642L34.2285 31.6579C34.2285 31.6298 34.2285 31.6298 34.2285 31.6017L31.7535 29.9423C31.7535 29.9423 31.6973 29.9704 31.641 30.0548L31.0223 30.9548C30.6285 31.5173 29.8692 31.6861 29.3067 31.3204C25.7629 29.1267 23.5692 26.0611 22.7817 24.8236C22.416 24.2329 22.5567 23.4736 23.1192 23.0798L24.1317 22.3767V22.3486L22.4723 19.8736C22.4723 19.8454 22.4442 19.8454 22.416 19.8736L20.1379 21.2236Z" fill="#136387"/>
<path d="M34.4822 26.1172C34.1447 26.1172 33.8916 25.8641 33.8635 25.5266C33.6385 22.6859 31.3041 20.4078 28.4353 20.2109C28.0978 20.1828 27.8166 19.9016 27.8447 19.5359C27.8728 19.1984 28.1541 18.9172 28.5197 18.9453C32.0072 19.1703 34.8478 21.9266 35.1291 25.4141C35.1572 25.7516 34.9041 26.0609 34.5385 26.0891C34.5385 26.1172 34.5103 26.1172 34.4822 26.1172Z" fill="#136387"/>
<path d="M31.6976 26.3697C31.3883 26.3697 31.107 26.1447 31.0789 25.8072C30.9101 24.2885 29.7289 23.1072 28.2101 22.9103C27.8726 22.8822 27.6195 22.5447 27.6476 22.2072C27.6758 21.8697 28.0133 21.6166 28.3508 21.6447C30.4601 21.8978 32.0914 23.5291 32.3445 25.6385C32.3726 25.976 32.1476 26.2853 31.782 26.3416C31.7258 26.3697 31.6976 26.3697 31.6976 26.3697Z" fill="#136387"/>
</g>
</g>
<defs>
<clipPath id="clip0_41_6198">
<rect width="55" height="55" fill="white" transform="translate(0 0.349609)"/>
</clipPath>
<clipPath id="clip1_41_6198">
<rect width="18" height="18" fill="white" transform="translate(18 18.1016)"/>
</clipPath>
</defs>
</svg>
