<svg width="24" height="26" viewBox="0 0 24 26" fill="none" xmlns="http://www.w3.org/2000/svg">
<rect y="0.101562" width="24" height="24" rx="5" fill="white"/>
<path d="M14.018 7.23458V7.23242H14.5807L14.7863 7.27348C14.9234 7.30014 15.0478 7.33508 15.1596 7.3783C15.2714 7.42152 15.3796 7.47195 15.4842 7.52958C15.5888 7.5872 15.6837 7.64592 15.7688 7.70571C15.8532 7.76478 15.929 7.82745 15.996 7.89372C16.0624 7.96072 16.1659 7.97801 16.3066 7.94559C16.4472 7.91317 16.5987 7.86815 16.761 7.81052C16.9234 7.7529 17.0839 7.68806 17.2426 7.61602C17.4013 7.54398 17.4979 7.49824 17.5326 7.47879C17.5665 7.45863 17.5845 7.44782 17.5867 7.44637L17.5888 7.44313L17.5996 7.43773L17.6105 7.43233L17.6213 7.42692L17.6321 7.42152L17.6343 7.41828L17.6375 7.41612L17.6408 7.41396L17.6429 7.41071L17.6537 7.40747L17.6646 7.40531L17.6624 7.42152L17.6592 7.43773L17.6537 7.45394L17.6483 7.47015L17.6429 7.48095L17.6375 7.49176L17.6321 7.50796C17.6285 7.51877 17.6249 7.53317 17.6213 7.55119C17.6177 7.5692 17.5834 7.64123 17.5185 7.7673C17.4536 7.89337 17.3724 8.02123 17.275 8.1509C17.1776 8.28057 17.0904 8.37853 17.0132 8.44481C16.9353 8.51181 16.8837 8.55863 16.8584 8.58528C16.8332 8.61265 16.8025 8.63786 16.7665 8.66092L16.7124 8.69658L16.7015 8.70198L16.6907 8.70739L16.6886 8.71063L16.6853 8.71279L16.6821 8.71495L16.6799 8.71819L16.6691 8.7236L16.6583 8.729L16.6561 8.73224L16.6528 8.7344L16.6496 8.73656L16.6474 8.7398L16.6453 8.74305L16.642 8.74521L16.6388 8.74737L16.6366 8.75061H16.6907L16.9937 8.68578C17.1957 8.64255 17.3886 8.59033 17.5726 8.52909L17.8647 8.43184L17.8972 8.42104L17.9134 8.41564L17.9243 8.41023L17.9351 8.40483L17.9459 8.39943L17.9567 8.39402L17.9784 8.39078L18 8.38862V8.41023L17.9946 8.41239L17.9892 8.41564L17.987 8.41888L17.9838 8.42104L17.9805 8.4232L17.9784 8.42644L17.9762 8.42968L17.9729 8.43184L17.9697 8.43401L17.9675 8.43725L17.9654 8.44049L17.9621 8.44265L17.9567 8.45346L17.9513 8.46426L17.9481 8.46642C17.9466 8.46858 17.9008 8.52981 17.8106 8.65012C17.7205 8.77114 17.6718 8.83236 17.6646 8.83381C17.6574 8.83597 17.6472 8.84678 17.6343 8.86623C17.622 8.88639 17.5455 8.96672 17.4049 9.10719C17.2642 9.24767 17.1264 9.37264 16.9915 9.48215C16.8559 9.59237 16.7874 9.72779 16.7859 9.88844C16.7838 10.0484 16.7755 10.2292 16.761 10.4309C16.7466 10.6326 16.7196 10.8505 16.6799 11.0846C16.6402 11.3187 16.5789 11.5835 16.4959 11.8788C16.413 12.1742 16.312 12.4623 16.193 12.7433C16.0739 13.0242 15.9495 13.2764 15.8197 13.4997C15.6898 13.723 15.5708 13.9121 15.4626 14.067C15.3544 14.2218 15.2444 14.3677 15.1326 14.5046C15.0207 14.6415 14.8794 14.7956 14.7084 14.9671C14.5367 15.1378 14.4429 15.2315 14.4271 15.248C14.4105 15.2639 14.3398 15.3229 14.215 15.4252C14.0909 15.5282 13.9574 15.6313 13.8146 15.7343C13.6725 15.8366 13.5419 15.9219 13.4229 15.9904C13.3039 16.0588 13.1603 16.137 12.9922 16.2248C12.8249 16.3135 12.6438 16.3956 12.4491 16.4712C12.2543 16.5469 12.0487 16.6171 11.8323 16.6819C11.6159 16.7468 11.4067 16.7972 11.2047 16.8332C11.0027 16.8692 10.7737 16.8998 10.5176 16.925L10.1335 16.9629V16.9683H9.43012V16.9629L9.33814 16.9575C9.27683 16.9539 9.22633 16.9503 9.18665 16.9467C9.14699 16.9431 8.99729 16.9232 8.7376 16.8872C8.47791 16.8512 8.27412 16.8152 8.12624 16.7792C7.97837 16.7432 7.75834 16.6747 7.46619 16.5739C7.17403 16.473 6.92408 16.3711 6.71632 16.2681C6.50929 16.1658 6.37944 16.1009 6.32678 16.0736C6.27484 16.0469 6.21641 16.0138 6.15149 15.9742L6.0541 15.9147L6.05195 15.9115L6.04869 15.9093L6.04545 15.9072L6.04328 15.9039L6.03246 15.8985L6.02164 15.8931L6.01949 15.8899L6.01623 15.8877L6.01298 15.8855L6.01082 15.8823L6.00867 15.8791L6.00541 15.8769H6V15.8553L6.01082 15.8575L6.02164 15.8607L6.07033 15.8661C6.1028 15.8697 6.19117 15.8751 6.33544 15.8823C6.47972 15.8895 6.633 15.8895 6.79531 15.8823C6.95762 15.8751 7.12354 15.8589 7.29306 15.8337C7.46258 15.8085 7.66276 15.7653 7.8936 15.704C8.12444 15.6428 8.33653 15.57 8.52986 15.4857C8.72246 15.4007 8.85952 15.3373 8.94104 15.2956C9.02183 15.2545 9.14518 15.1781 9.31109 15.0665L9.55996 14.899L9.56213 14.8958L9.56537 14.8936L9.56863 14.8914L9.57078 14.8882L9.57295 14.885L9.57619 14.8828L9.57945 14.8806L9.58161 14.8774L9.59243 14.8741L9.60325 14.872L9.60541 14.8612L9.60866 14.8504L9.61191 14.8482L9.61407 14.845L9.5275 14.8396C9.4698 14.836 9.41389 14.8324 9.35978 14.8288C9.30568 14.8252 9.22092 14.809 9.1055 14.7801C8.99009 14.7513 8.86565 14.7081 8.73219 14.6505C8.59874 14.5928 8.46889 14.5244 8.34265 14.4452C8.21642 14.3659 8.12516 14.3 8.06889 14.2474C8.01335 14.1955 7.94121 14.1221 7.85248 14.027C7.76448 13.9312 7.68801 13.8328 7.62308 13.732C7.55816 13.6311 7.49613 13.5148 7.43698 13.383L7.34716 13.1863L7.34175 13.1701L7.33634 13.1539L7.33309 13.1431L7.33093 13.1323L7.34716 13.1344L7.36339 13.1377L7.48242 13.1539C7.56177 13.1647 7.68621 13.1683 7.85573 13.1647C8.02525 13.1611 8.14247 13.1539 8.20739 13.1431C8.27232 13.1323 8.312 13.1251 8.32642 13.1215L8.34806 13.1161L8.37511 13.1107L8.40216 13.1053L8.40433 13.102L8.40757 13.0999L8.41083 13.0977L8.41298 13.0945L8.39134 13.0891L8.3697 13.0837L8.34806 13.0783L8.32642 13.0729L8.30478 13.0674C8.29036 13.0638 8.26511 13.0566 8.22904 13.0458C8.19297 13.035 8.09559 12.9954 7.93688 12.927C7.77819 12.8585 7.65194 12.7919 7.55816 12.7271C7.46415 12.6621 7.3745 12.5909 7.28981 12.5142C7.20541 12.4364 7.11272 12.3363 7.01172 12.2138C6.91073 12.0913 6.82057 11.9491 6.74121 11.787C6.66186 11.6249 6.60235 11.47 6.56267 11.3223C6.52315 11.1755 6.49708 11.0254 6.48477 10.8739L6.46528 10.647L6.4761 10.6492L6.48693 10.6524L6.49775 10.6578L6.50857 10.6632L6.51939 10.6686L6.53021 10.674L6.69793 10.7496C6.80975 10.8001 6.94861 10.8433 7.11452 10.8793C7.28044 10.9153 7.37962 10.9351 7.41208 10.9387L7.46078 10.9441H7.55816L7.55601 10.9409L7.55275 10.9387L7.5495 10.9366L7.54734 10.9333L7.54519 10.9301L7.54193 10.9279L7.53868 10.9258L7.53652 10.9225L7.5257 10.9171L7.51488 10.9117L7.51272 10.9085L7.50947 10.9063L7.50622 10.9042L7.50406 10.9009L7.49324 10.8955L7.48242 10.8901L7.48026 10.8869C7.4781 10.8854 7.44708 10.8624 7.3872 10.8177C7.32804 10.7723 7.26601 10.7136 7.20108 10.6416C7.13616 10.5695 7.07124 10.4939 7.00631 10.4147C6.94127 10.3353 6.88334 10.2503 6.83318 10.1607C6.78269 10.0707 6.72931 9.95615 6.67304 9.81712C6.6175 9.67881 6.5753 9.53942 6.54644 9.39895C6.51759 9.25847 6.50136 9.1198 6.49775 8.98293C6.49414 8.84606 6.49775 8.729 6.50857 8.63175C6.51939 8.5345 6.54103 8.42464 6.57349 8.30218C6.60595 8.17972 6.65285 8.05005 6.71416 7.91317L6.80613 7.70787L6.81154 7.69166L6.81695 7.67545L6.82021 7.67329L6.82236 7.67005L6.82453 7.66681L6.82777 7.66465L6.83103 7.66681L6.83318 7.67005L6.83535 7.67329L6.83859 7.67545L6.84185 7.67761L6.844 7.68085L6.84617 7.6841L6.84941 7.68626L6.85482 7.69706L6.86023 7.70787L6.86349 7.71003L6.86564 7.71327L7.01172 7.87536C7.10911 7.98341 7.22453 8.10408 7.35798 8.23734C7.49144 8.37061 7.56538 8.43976 7.5798 8.44481C7.59424 8.45057 7.61226 8.46714 7.6339 8.49452C7.65555 8.52117 7.72769 8.58493 7.85032 8.68578C7.97296 8.78662 8.13346 8.90369 8.33183 9.03696C8.53021 9.17022 8.75023 9.3017 8.99188 9.43136C9.23355 9.56103 9.49324 9.67809 9.77096 9.78254C10.0487 9.887 10.2435 9.95543 10.3553 9.98785C10.4671 10.0203 10.6583 10.0617 10.9288 10.1121C11.1993 10.1625 11.4031 10.195 11.5401 10.2094C11.6772 10.2238 11.771 10.2321 11.8215 10.2342L11.8972 10.2364L11.8951 10.2202L11.8918 10.204L11.8702 10.0689C11.8557 9.97885 11.8485 9.85278 11.8485 9.6907C11.8485 9.52861 11.8611 9.37914 11.8864 9.24226C11.9116 9.10539 11.9495 8.96672 12 8.82625C12.0505 8.68578 12.0999 8.57303 12.1482 8.48803C12.1973 8.40375 12.2615 8.30758 12.3408 8.19952C12.4202 8.09147 12.523 7.97981 12.6492 7.86455C12.7755 7.74929 12.9197 7.64663 13.0821 7.55659C13.2444 7.46655 13.3941 7.3981 13.5311 7.35128C13.6682 7.30446 13.7836 7.27384 13.8774 7.25944C13.9711 7.24503 14.018 7.23674 14.018 7.23458Z" fill="#8D8BA7"/>
</svg>
