<svg width="24" height="25" viewBox="0 0 24 25" fill="none" xmlns="http://www.w3.org/2000/svg">
<rect y="0.0976562" width="24" height="24" rx="5" fill="white"/>
<g clip-path="url(#clip0_41_6169)">
<path d="M16.125 7.95508C15.0375 6.86758 13.5563 6.26758 12.0375 6.26758C8.85 6.26758 6.24375 8.85508 6.24375 12.0426C6.24375 13.0738 6.50625 14.0488 7.0125 14.9488L6.1875 17.9301L9.28125 17.1426C10.125 17.5926 11.0812 17.8551 12.0562 17.8551C15.225 17.8363 17.8125 15.2488 17.8125 12.0426C17.8125 10.5051 17.2125 9.06133 16.125 7.95508ZM12.0187 16.8613C11.175 16.8613 10.2937 16.6176 9.5625 16.1676L9.375 16.0551L7.55625 16.5238L8.0625 14.7613L7.95 14.5738C7.48125 13.8051 7.21875 12.9051 7.21875 12.0051C7.21875 9.36133 9.35625 7.22383 12.0187 7.22383C13.2937 7.22383 14.4937 7.73008 15.3937 8.63008C16.2937 9.53008 16.8 10.7488 16.8 12.0426C16.8375 14.7238 14.6625 16.8613 12.0187 16.8613ZM14.6625 13.2613C14.5125 13.1863 13.8187 12.8301 13.65 12.8113C13.5187 12.7551 13.4062 12.7363 13.3312 12.8863C13.2562 13.0363 12.9563 13.3363 12.8813 13.4488C12.8063 13.5238 12.7312 13.5613 12.5625 13.4676C12.4125 13.3926 11.9625 13.2613 11.4 12.7363C10.9688 12.3613 10.6688 11.8926 10.6125 11.7238C10.5375 11.5738 10.5938 11.5176 10.6875 11.4238C10.7625 11.3488 10.8375 11.2738 10.8938 11.1613C10.9688 11.0863 10.9688 11.0113 11.0437 10.9176C11.1188 10.8426 11.0625 10.7301 11.025 10.6551C10.9688 10.5801 10.7062 9.86758 10.575 9.56758C10.4625 9.26758 10.3313 9.32383 10.2563 9.32383C10.1813 9.32383 10.0687 9.32383 9.99375 9.32383C9.91875 9.32383 9.73125 9.34258 9.61875 9.51133C9.4875 9.66133 9.1125 10.0176 9.1125 10.7301C9.1125 11.4426 9.61875 12.0988 9.7125 12.2301C9.7875 12.3051 10.7438 13.7863 12.1688 14.4238C12.5063 14.5738 12.7687 14.6676 12.9937 14.7426C13.3312 14.8551 13.65 14.8176 13.8937 14.7988C14.175 14.7801 14.7375 14.4613 14.8687 14.1051C14.9812 13.7863 14.9812 13.4676 14.9438 13.4113C14.9062 13.3738 14.7937 13.3176 14.6625 13.2613Z" fill="#8D8BA7"/>
</g>
<defs>
<clipPath id="clip0_41_6169">
<rect width="12" height="12" fill="white" transform="translate(6 6.09961)"/>
</clipPath>
</defs>
</svg>
